<svg width="286" height="81" viewBox="0 0 286 81" fill="none" xmlns="http://www.w3.org/2000/svg">
<path d="M60.9664 39.96H65.9664V34.96H60.9664V39.96ZM60.9664 71.16L63.3369 75.5624L65.9664 74.1465V71.16H60.9664ZM50.6944 74.52L51.6333 79.4311L51.668 79.4244L51.7026 79.4173L50.6944 74.52ZM20.3584 71.64L17.8283 75.9526L17.8498 75.9652L17.8715 75.9777L20.3584 71.64ZM9.31838 59.544L4.80306 61.6915L4.81369 61.7139L4.82454 61.7361L9.31838 59.544ZM9.31838 22.008L4.82454 19.8159L4.81369 19.8381L4.80306 19.8605L9.31838 22.008ZM20.2624 10.008L17.7503 5.68487L17.7503 5.68487L20.2624 10.008ZM60.2944 14.808L64.7111 17.1516L66.4241 13.9233L63.8681 11.3111L60.2944 14.808ZM57.7984 19.512L54.4495 23.2248L59.2102 27.5188L62.2151 21.8556L57.7984 19.512ZM47.9104 13.176L46.0066 17.7994L46.0608 17.8217L46.1155 17.8427L47.9104 13.176ZM18.2464 18.84L14.4601 15.5744L14.4484 15.588L14.4367 15.6018L18.2464 18.84ZM18.3424 62.904L14.5561 66.1696L14.5678 66.1831L14.5795 66.1965L18.3424 62.904ZM55.5904 67.416L57.3816 72.0841L60.5904 70.8529V67.416H55.5904ZM55.5904 45.048H60.5904V40.048H55.5904V45.048ZM37.5424 45.048H32.5424V50.048H37.5424V45.048ZM37.5424 39.96V34.96H32.5424V39.96H37.5424ZM55.9664 39.96V71.16H65.9664V39.96H55.9664ZM58.5959 66.7576C56.6983 67.7794 53.7995 68.7758 49.6861 69.6227L51.7026 79.4173C56.2932 78.4722 60.2425 77.2286 63.3369 75.5624L58.5959 66.7576ZM49.7555 69.6089C45.7119 70.382 41.6423 70.768 37.5424 70.768V80.768C42.2745 80.768 46.9728 80.322 51.6333 79.4311L49.7555 69.6089ZM37.5424 70.768C31.5819 70.768 26.7483 69.54 22.8453 67.3023L17.8715 75.9777C23.5685 79.244 30.1909 80.768 37.5424 80.768V70.768ZM22.8885 67.3274C18.9806 65.0347 15.9631 61.7611 13.8122 57.3519L4.82454 61.7361C7.7937 67.8229 12.1362 72.6133 17.8283 75.9526L22.8885 67.3274ZM13.8337 57.3965C11.7276 52.9682 10.5744 47.4656 10.5744 40.728H0.574382C0.574382 48.5824 1.91719 55.6238 4.80306 61.6915L13.8337 57.3965ZM10.5744 40.728C10.5744 34.0619 11.725 28.5892 13.8337 24.1555L4.80306 19.8605C1.91975 25.9228 0.574382 32.9301 0.574382 40.728H10.5744ZM13.8122 24.2001C15.9677 19.7814 18.9533 16.5515 22.7745 14.3311L17.7503 5.68487C12.0994 8.96849 7.78906 13.7386 4.82454 19.8159L13.8122 24.2001ZM22.7745 14.3311C26.6201 12.0965 31.3208 10.88 37.0624 10.88V0.879997C29.876 0.879997 23.3766 2.41552 17.7503 5.68487L22.7745 14.3311ZM37.0624 10.88C45.6157 10.88 51.9894 13.4696 56.7206 18.3049L63.8681 11.3111C56.9514 4.24236 47.837 0.879997 37.0624 0.879997V10.88ZM55.8776 12.4644L53.3816 17.1684L62.2151 21.8556L64.7111 17.1516L55.8776 12.4644ZM61.1472 15.7992C57.5305 12.537 53.7213 10.0539 49.7053 8.50927L46.1155 17.8427C48.7555 18.8581 51.5383 20.599 54.4495 23.2248L61.1472 15.7992ZM49.8141 8.5526C45.8664 6.92708 41.5592 6.16 36.9664 6.16V16.16C40.4375 16.16 43.4263 16.7369 46.0066 17.7994L49.8141 8.5526ZM36.9664 6.16C27.756 6.16 20.0101 9.13963 14.4601 15.5744L22.0326 22.1056C25.3147 18.3004 30.0488 16.16 36.9664 16.16V6.16ZM14.4367 15.6018C9.05378 21.9346 6.71838 30.5501 6.71838 40.728H16.7184C16.7184 31.9619 18.735 25.9854 22.0561 22.0782L14.4367 15.6018ZM6.71838 40.728C6.71838 51.0836 9.07956 59.82 14.5561 66.1696L22.1286 59.6384C18.7732 55.748 16.7184 49.7004 16.7184 40.728H6.71838ZM14.5795 66.1965C20.2245 72.648 28.1759 75.584 37.6384 75.584V65.584C30.3329 65.584 25.4202 63.4 22.1053 59.6115L14.5795 66.1965ZM37.6384 75.584C44.6556 75.584 51.2532 74.4357 57.3816 72.0841L53.7991 62.7479C48.9196 64.6203 43.5491 65.584 37.6384 65.584V75.584ZM60.5904 67.416V45.048H50.5904V67.416H60.5904ZM55.5904 40.048H37.5424V50.048H55.5904V40.048ZM42.5424 45.048V39.96H32.5424V45.048H42.5424ZM37.5424 44.96H60.9664V34.96H37.5424V44.96ZM122.847 26.904H127.847V21.904H122.847V26.904ZM122.847 75V80H127.847V75H122.847ZM117.183 75H112.183V80H117.183V75ZM117.183 66.264H122.183L112.71 64.0279L117.183 66.264ZM110.655 73.272L108.185 68.9247L108.185 68.9247L110.655 73.272ZM88.1906 70.968L84.508 74.35L84.508 74.35L88.1906 70.968ZM83.8706 26.904V21.904H78.8706V26.904H83.8706ZM89.6306 26.904H94.6306V21.904H89.6306V26.904ZM92.5106 67.128L88.7143 70.382L88.7143 70.382L92.5106 67.128ZM112.767 66.072L116.38 69.5281L116.398 69.5087L116.417 69.4891L112.767 66.072ZM116.991 26.904V21.904H111.991V26.904H116.991ZM117.847 26.904V75H127.847V26.904H117.847ZM122.847 70H117.183V80H122.847V70ZM122.183 75V66.264H112.183V75H122.183ZM112.71 64.0279C111.59 66.2697 110.085 67.8447 108.185 68.9247L113.125 77.6193C116.856 75.4993 119.704 72.4023 121.655 68.5001L112.71 64.0279ZM108.185 68.9247C106.213 70.045 103.852 70.672 100.959 70.672V80.672C105.361 80.672 109.464 79.699 113.125 77.6193L108.185 68.9247ZM100.959 70.672C96.252 70.672 93.5271 69.3868 91.8733 67.586L84.508 74.35C88.6142 78.8212 94.4012 80.672 100.959 80.672V70.672ZM91.8733 67.586C90.1506 65.7102 88.8706 62.4892 88.8706 57.048H78.8706C78.8706 63.8948 80.4707 69.9538 84.508 74.35L91.8733 67.586ZM88.8706 57.048V26.904H78.8706V57.048H88.8706ZM83.8706 31.904H89.6306V21.904H83.8706V31.904ZM84.6306 26.904V56.664H94.6306V26.904H84.6306ZM84.6306 56.664C84.6306 61.9143 85.6674 66.8272 88.7143 70.382L96.3069 63.874C95.5139 62.9488 94.6306 60.8857 94.6306 56.664H84.6306ZM88.7143 70.382C91.8974 74.0955 96.5089 75.488 101.439 75.488V65.488C98.3043 65.488 96.9638 64.6405 96.3069 63.874L88.7143 70.382ZM101.439 75.488C107.298 75.488 112.466 73.6201 116.38 69.5281L109.153 62.6159C107.435 64.4119 105.051 65.488 101.439 65.488V75.488ZM116.417 69.4891C120.265 65.3785 121.991 60.1012 121.991 54.168H111.991C111.991 58.0908 110.9 60.7495 109.117 62.6549L116.417 69.4891ZM121.991 54.168V26.904H111.991V54.168H121.991ZM116.991 31.904H122.847V21.904H116.991V31.904ZM143.135 69.24L138.606 67.1203L137.074 70.395L139.703 72.8765L143.135 69.24ZM145.247 64.728L148.429 60.8711L143.453 56.7661L140.718 62.6083L145.247 64.728ZM152.927 69.24L151.275 73.9593L151.293 73.9656L151.311 73.9717L152.927 69.24ZM170.975 68.568L173.718 72.7482L173.733 72.7383L173.748 72.7283L170.975 68.568ZM172.031 57.432L168.583 61.0527L168.671 61.1366L168.763 61.2161L172.031 57.432ZM165.311 54.36L166.5 49.5035L166.451 49.4915L166.402 49.4804L165.311 54.36ZM157.151 52.536L156.015 57.4052L156.037 57.4105L156.06 57.4156L157.151 52.536ZM148.031 47.736L144.396 51.1691L144.421 51.1954L144.446 51.2214L148.031 47.736ZM149.567 29.592L152.642 33.5345L152.653 33.5263L149.567 29.592ZM171.935 27.384L170.168 32.0614L170.185 32.0677L170.202 32.074L171.935 27.384ZM179.231 32.088L183.722 34.2858L185.239 31.186L182.879 28.6683L179.231 32.088ZM177.023 36.6L173.742 40.373L178.653 44.6437L181.514 38.7978L177.023 36.6ZM153.887 33.048L156.805 37.1081L156.805 37.1081L153.887 33.048ZM152.735 44.472L149.114 47.9203L149.156 47.9644L149.199 48.0075L152.735 44.472ZM158.879 47.448L160.065 42.5907L160.038 42.5842L160.011 42.578L158.879 47.448ZM167.135 49.464L165.949 54.3213L165.999 54.3336L166.05 54.3449L167.135 49.464ZM175.103 72.024L178.053 76.061L178.078 76.0426L178.103 76.024L175.103 72.024ZM161.663 70.672C154.797 70.672 149.965 68.8109 146.566 65.6035L139.703 72.8765C145.392 78.2451 152.913 80.672 161.663 80.672V70.672ZM147.663 71.3597L149.775 66.8477L140.718 62.6083L138.606 67.1203L147.663 71.3597ZM142.065 68.5849C144.982 70.9912 148.049 72.8302 151.275 73.9593L154.579 64.5207C152.684 63.8578 150.632 62.6888 148.429 60.8711L142.065 68.5849ZM151.311 73.9717C154.557 75.08 158.128 75.584 161.951 75.584V65.584C158.99 65.584 156.545 65.192 154.543 64.5083L151.311 73.9717ZM161.951 75.584C166.345 75.584 170.493 74.8645 173.718 72.7482L168.232 64.3878C167.36 64.9595 165.493 65.584 161.951 65.584V75.584ZM173.748 72.7283C177.307 70.356 179.143 66.748 179.143 62.52H169.143C169.143 63.54 168.867 63.964 168.201 64.4077L173.748 72.7283ZM179.143 62.52C179.143 59.1633 177.997 55.9783 175.299 53.6479L168.763 61.2161C168.88 61.3177 169.143 61.5247 169.143 62.52H179.143ZM175.479 53.8113C173.193 51.6339 169.939 50.3455 166.5 49.5035L164.122 59.2165C166.955 59.9105 168.181 60.6701 168.583 61.0527L175.479 53.8113ZM166.402 49.4804L158.242 47.6564L156.06 57.4156L164.22 59.2396L166.402 49.4804ZM158.287 47.6668C155.166 46.9387 153.052 45.7273 151.616 44.2506L144.446 51.2214C147.49 54.3527 151.455 56.3413 156.015 57.4052L158.287 47.6668ZM151.666 44.3029C150.336 42.8945 149.767 41.4233 149.767 39.672H139.767C139.767 44.0647 141.374 47.9695 144.396 51.1691L151.666 44.3029ZM149.767 39.672C149.767 36.9153 150.713 35.0389 152.642 33.5345L146.492 25.6495C142.02 29.1371 139.767 33.9806 139.767 39.672H149.767ZM152.653 33.5263C154.805 31.8379 157.936 30.752 162.527 30.752V20.752C156.366 20.752 150.856 22.2261 146.481 25.6577L152.653 33.5263ZM162.527 30.752C165.377 30.752 167.907 31.2074 170.168 32.0614L173.702 22.7066C170.202 21.3846 166.461 20.752 162.527 20.752V30.752ZM170.202 32.074C172.504 32.925 174.254 34.0899 175.583 35.5077L182.879 28.6683C180.368 25.9901 177.253 24.019 173.668 22.694L170.202 32.074ZM174.74 29.8902L172.532 34.4022L181.514 38.7978L183.722 34.2858L174.74 29.8902ZM180.304 32.827C175.09 28.2934 169.122 25.84 162.527 25.84V35.84C166.428 35.84 170.124 37.2266 173.742 40.373L180.304 32.827ZM162.527 25.84C158.238 25.84 154.183 26.6779 150.969 28.9879L156.805 37.1081C157.687 36.4741 159.391 35.84 162.527 35.84V25.84ZM150.969 28.9879C147.553 31.4433 145.815 35.0352 145.815 39.192H155.815C155.815 38.1007 156.125 37.5967 156.805 37.1081L150.969 28.9879ZM145.815 39.192C145.815 42.415 146.798 45.4881 149.114 47.9203L156.356 41.0237C156.112 40.7679 155.815 40.321 155.815 39.192H145.815ZM149.199 48.0075C151.451 50.2592 154.498 51.5627 157.746 52.318L160.011 42.578C157.755 42.0533 156.707 41.3728 156.27 40.9365L149.199 48.0075ZM157.693 52.3053L165.949 54.3213L168.321 44.6067L160.065 42.5907L157.693 52.3053ZM166.05 54.3449C169.851 55.1895 172.094 56.4247 173.346 57.6578C174.464 58.7594 175.095 60.1463 175.095 62.232H185.095C185.095 57.7257 183.566 53.6886 180.364 50.5342C177.296 47.5113 173.059 45.6585 168.22 44.5831L166.05 54.3449ZM175.095 62.232C175.095 64.6324 174.219 66.4371 172.103 68.024L178.103 76.024C182.643 72.6189 185.095 67.8956 185.095 62.232H175.095ZM172.153 67.987C169.945 69.6006 166.616 70.672 161.663 70.672V80.672C167.974 80.672 173.605 79.3114 178.053 76.061L172.153 67.987ZM208.344 31.608V26.608H203.344V31.608H208.344ZM222.264 69.528H227.264V62.5061L220.628 64.8031L222.264 69.528ZM222.264 74.808L223.476 79.6587L227.264 78.7119V74.808H222.264ZM206.04 72.024L202.504 75.5595L202.528 75.5831L202.552 75.6064L206.04 72.024ZM202.488 31.608H207.488V26.608H202.488V31.608ZM192.984 31.608H187.984V36.608H192.984V31.608ZM192.984 26.904V21.904H187.984V26.904H192.984ZM202.488 26.904V31.904H207.488V26.904H202.488ZM202.488 14.136L200.724 9.45751L197.488 10.6776V14.136H202.488ZM208.344 11.928H213.344V4.69915L206.58 7.24951L208.344 11.928ZM208.344 26.904H203.344V31.904H208.344V26.904ZM222.552 26.904H227.552V21.904H222.552V26.904ZM222.552 31.608V36.608H227.552V31.608H222.552ZM203.344 31.608V60.216H213.344V31.608H203.344ZM203.344 60.216C203.344 64.371 204.076 68.7791 207.016 71.7195L214.087 64.6485C214.128 64.6893 213.924 64.5096 213.714 63.7528C213.503 62.9926 213.344 61.8474 213.344 60.216H203.344ZM207.016 71.7195C209.738 74.4412 213.392 75.392 217.08 75.392V65.392C215.007 65.392 214.309 64.8708 214.087 64.6485L207.016 71.7195ZM217.08 75.392C219.418 75.392 221.7 75.0143 223.899 74.2529L220.628 64.8031C219.5 65.1937 218.325 65.392 217.08 65.392V75.392ZM217.264 69.528V74.808H227.264V69.528H217.264ZM221.051 69.9573C219.4 70.3701 217.727 70.576 216.024 70.576V80.576C218.544 80.576 221.032 80.2699 223.476 79.6587L221.051 69.9573ZM216.024 70.576C212.767 70.576 210.811 69.6908 209.528 68.4416L202.552 75.6064C206.133 79.0932 210.832 80.576 216.024 80.576V70.576ZM209.575 68.4885C208.476 67.3889 207.488 65.3333 207.488 61.368H197.488C197.488 66.8747 198.868 71.9231 202.504 75.5595L209.575 68.4885ZM207.488 61.368V31.608H197.488V61.368H207.488ZM202.488 26.608H192.984V36.608H202.488V26.608ZM197.984 31.608V26.904H187.984V31.608H197.984ZM192.984 31.904H202.488V21.904H192.984V31.904ZM207.488 26.904V14.136H197.488V26.904H207.488ZM204.252 18.8145L210.108 16.6065L206.58 7.24951L200.724 9.45751L204.252 18.8145ZM203.344 11.928V26.904H213.344V11.928H203.344ZM208.344 31.904H222.552V21.904H208.344V31.904ZM217.552 26.904V31.608H227.552V26.904H217.552ZM222.552 26.608H208.344V36.608H222.552V26.608ZM247.119 72.6L244.499 76.8583L244.517 76.8694L244.535 76.8803L247.119 72.6ZM239.343 63.864L234.826 66.0077L234.841 66.0388L234.856 66.0696L239.343 63.864ZM239.343 37.56L234.856 35.3544L234.841 35.3852L234.826 35.4163L239.343 37.56ZM247.119 28.824L244.535 24.5437L244.517 24.5546L244.499 24.5657L247.119 28.824ZM270.351 28.824L272.972 24.5657L272.972 24.5657L270.351 28.824ZM278.031 37.56L273.514 39.7037L273.529 39.7348L273.544 39.7656L278.031 37.56ZM278.031 63.864L273.544 61.6584L273.529 61.6892L273.514 61.7203L278.031 63.864ZM270.351 72.6L267.731 68.3417L267.731 68.3417L270.351 72.6ZM270.543 65.4L266.667 62.2416L266.661 62.2498L270.543 65.4ZM270.543 36.12L266.639 39.2435L266.653 39.261L266.667 39.2784L270.543 36.12ZM247.023 36.12L250.9 39.2784L250.914 39.261L250.928 39.2435L247.023 36.12ZM246.927 65.4L243.045 68.5502L246.927 65.4ZM258.831 70.672C255.219 70.672 252.229 69.8444 249.704 68.3197L244.535 76.8803C248.794 79.4516 253.612 80.672 258.831 80.672V70.672ZM249.74 68.3417C247.277 66.8262 245.304 64.6554 243.831 61.6584L234.856 66.0696C237.095 70.6246 240.306 74.2778 244.499 76.8583L249.74 68.3417ZM243.861 61.7203C242.442 58.7319 241.655 55.1048 241.655 50.712H231.655C231.655 56.3032 232.66 61.4441 234.826 66.0077L243.861 61.7203ZM241.655 50.712C241.655 46.3192 242.442 42.6921 243.861 39.7037L234.826 35.4163C232.66 39.9799 231.655 45.1208 231.655 50.712H241.655ZM243.831 39.7656C245.304 36.7686 247.277 34.5978 249.74 33.0823L244.499 24.5657C240.306 27.1462 237.095 30.7994 234.856 35.3544L243.831 39.7656ZM249.704 33.1043C252.229 31.5796 255.219 30.752 258.831 30.752V20.752C253.612 20.752 248.794 21.9724 244.535 24.5437L249.704 33.1043ZM258.831 30.752C262.366 30.752 265.278 31.573 267.731 33.0823L272.972 24.5657C268.768 21.979 264 20.752 258.831 20.752V30.752ZM267.731 33.0823C270.178 34.5879 272.107 36.7375 273.514 39.7037L282.549 35.4163C280.372 30.8305 277.181 27.1561 272.972 24.5657L267.731 33.0823ZM273.544 39.7656C275.006 42.7387 275.815 46.3433 275.815 50.712H285.815C285.815 45.0967 284.769 39.9333 282.519 35.3544L273.544 39.7656ZM275.815 50.712C275.815 55.0807 275.006 58.6853 273.544 61.6584L282.519 66.0696C284.769 61.4907 285.815 56.3273 285.815 50.712H275.815ZM273.514 61.7203C272.107 64.6865 270.178 66.8361 267.731 68.3417L272.972 76.8583C277.181 74.2679 280.372 70.5935 282.549 66.0077L273.514 61.7203ZM267.731 68.3417C265.278 69.851 262.366 70.672 258.831 70.672V80.672C264 80.672 268.768 79.445 272.972 76.8583L267.731 68.3417ZM258.735 75.488C265.073 75.488 270.556 73.3202 274.426 68.5502L266.661 62.2498C265.027 64.2638 262.638 65.488 258.735 65.488V75.488ZM274.42 68.5584C278.215 63.9008 279.767 57.7235 279.767 50.712H269.767C269.767 56.3725 268.504 59.9872 266.667 62.2416L274.42 68.5584ZM279.767 50.712C279.767 43.75 278.208 37.6113 274.42 32.9616L266.667 39.2784C268.511 41.5407 269.767 45.13 269.767 50.712H279.767ZM274.448 32.9965C270.573 28.1526 265.157 25.84 258.831 25.84V35.84C262.49 35.84 264.882 37.0474 266.639 39.2435L274.448 32.9965ZM258.831 25.84C252.466 25.84 247.008 28.1359 243.119 32.9965L250.928 39.2435C252.671 37.0641 255.085 35.84 258.831 35.84V25.84ZM243.147 32.9616C239.359 37.6113 237.799 43.75 237.799 50.712H247.799C247.799 45.13 249.056 41.5407 250.9 39.2784L243.147 32.9616ZM237.799 50.712C237.799 57.7423 239.3 63.9352 243.045 68.5502L250.81 62.2498C249.05 60.0808 247.799 56.4817 247.799 50.712H237.799ZM243.045 68.5502C246.915 73.3202 252.398 75.488 258.735 75.488V65.488C254.833 65.488 252.444 64.2638 250.81 62.2498L243.045 68.5502Z" fill="white"/>
</svg>
